<?xml version="1.0" encoding="UTF-8"?>
<svg id="_レイヤー_2" data-name="レイヤー 2" xmlns="http://www.w3.org/2000/svg" xmlns:xlink="http://www.w3.org/1999/xlink" viewBox="0 0 2200 500">
  <defs>
    <style>
      .cls-1 {
        fill: #fff;
      }

      .cls-2 {
        fill: url(#_名称未設定グラデーション_10);
      }
    </style>
    <linearGradient id="_名称未設定グラデーション_10" data-name="名称未設定グラデーション 10" x1="427.6" y1="300" x2="1285" y2="300" gradientUnits="userSpaceOnUse">
      <stop offset=".12" stop-color="#00b74f"/>
      <stop offset=".88" stop-color="#307fe2"/>
    </linearGradient>
  </defs>
  <g id="_レイヤー_1-2" data-name="レイヤー 1">
    <g>
      <path class="cls-2" d="m1085,500c110.46,0,200-89.54,200-200s-89.54-200-200-200h-457.4c-110.46,0-200,89.54-200,200s89.54,200,200,200h457.4Z"/>
      <path class="cls-1" d="m627.6,100c-110.46,0-200,89.54-200,200s89.54,200,200,200,200-89.54,200-200-89.54-200-200-200Zm0,300c-55.23,0-100-44.77-100-100s44.77-100,100-100,100,44.77,100,100-44.77,100-100,100Z"/>
      <path class="cls-1" d="m1278.75,10h-87.5c-3.45,0-6.25,2.8-6.25,6.25v105.23c0,1.73-1.4,3.12-3.12,3.12-.55,0-1.07-.14-1.52-.39-28.35-15.42-60.81-24.22-95.36-24.22-110.46,0-200,89.54-200,200s89.54,200,200,200,200-89.54,200-200V16.25c0-3.45-2.8-6.25-6.25-6.25Zm-193.75,390c-55.23,0-100-44.77-100-100s44.77-100,100-100,100,44.77,100,100-44.77,100-100,100Z"/> 
    </g>
  </g>
</svg>