<?xml version="1.0" encoding="utf-8"?>
<!-- Generator: Adobe Illustrator 26.5.2, SVG Export Plug-In . SVG Version: 6.00 Build 0)  -->
<svg version="1.1" id="レイヤー_1" xmlns="http://www.w3.org/2000/svg" xmlns:xlink="http://www.w3.org/1999/xlink" x="0px"
	 y="0px" viewBox="0 0 260 69.5" style="enable-background:new 0 0 260 69.5;" xml:space="preserve">
<style type="text/css">
	.st0{fill:#FFFFFF;}
</style>
<g>
	<g>
		<path class="st0" d="M27.4,1c5.1,0,9.5,1,13,2.9c3.5,1.9,6.2,4.5,8.1,8c1.8,3.4,2.8,7.3,2.8,11.7c0,4.4-1,8.4-2.9,11.7
			c-1.9,3.4-4.6,5.9-8.2,7.8C36.6,45,32.1,46,27,46H14.7h-1v1v21.5H1V1H27.4 M13.7,36.2h1h10c3,0,5.5-0.5,7.5-1.6
			c2.1-1.2,3.6-2.6,4.5-4.5c1-1.9,1.5-4.1,1.6-6.5c0-2.5-0.5-4.6-1.5-6.6c-1.1-1.9-2.6-3.3-4.6-4.4c-2.1-1-4.6-1.5-7.5-1.5h-9.9h-1
			v1v23.2V36.2 M27.4,0H0v69.5h14.7V47H27c5.3,0,9.9-1,13.7-3s6.6-4.7,8.6-8.2s3-7.6,3-12.2s-1-8.7-2.9-12.2c-2-3.6-4.8-6.4-8.5-8.4
			S32.7,0,27.4,0L27.4,0z M14.7,35.2V12h9.9c2.8,0,5.2,0.5,7.1,1.4c1.9,1,3.2,2.3,4.2,4c0.9,1.7,1.4,3.7,1.4,6.1
			c-0.1,2.3-0.6,4.3-1.5,6.1c-0.9,1.8-2.3,3.1-4.1,4.1s-4.2,1.5-7,1.5H14.7L14.7,35.2z"/>
	</g>
	<g>
		<path class="st0" d="M80.4,1v56.4v1h1h28.7v10.1H67.7V1H80.4 M81.4,0H66.7v69.5h44.4V57.4H81.4V0L81.4,0z"/>
	</g>
	<g>
		<path class="st0" d="M164.1,1l23.2,67.5h-13.6l-4.9-15.1l-0.2-0.7h-0.7h-25.1h-0.7l-0.2,0.7l-5,15.1h-13.6L146.6,1H164.1
			 M145.1,43.2h1.4h17.6h1.4l-0.4-1.3l-8.5-26.3l-0.2-0.7h-0.7h-0.5h-0.7l-0.2,0.7l-8.6,26.3L145.1,43.2 M164.8,0h-18.9l-24,69.5
			h15.7l5.2-15.8h25.1l5.1,15.8h15.7L164.8,0L164.8,0z M146.5,42.2l8.6-26.3h0.5l8.5,26.3H146.5L146.5,42.2z"/>
	</g>
	<g>
		<path class="st0" d="M259,1v67.5h-11.2l-29.9-43.3l-0.3-0.4h-0.5h-0.5h-1v1v42.7h-12.7V1h11.4L244,44.3l0.3,0.4h0.5h0.6h1v-1V1
			H259 M260,0h-14.6v43.7h-0.6L214.8,0h-12.9v69.5h14.7V25.8h0.5l30.2,43.7H260V0L260,0z"/>
	</g>
</g>
</svg>
